<svg width="166" height="166" viewBox="0 0 166 166" fill="none" xmlns="http://www.w3.org/2000/svg">
<path d="M90.21 72.7496C88.71 75.1796 87.37 77.6996 86.21 80.3096C80.32 93.4596 78.89 108.16 75.1 122.08C71.3 136 63.27 152.69 50.44 158.85C59.37 161.61 65.3 164.22 71.07 164.78C71.72 164.84 73.82 163.57 74.92 162.77C76.02 161.97 77.07 160.92 78.03 159.94C80.13 157.79 81.9 155.32 83.36 152.68C86.6 146.83 88.41 140.25 89.57 133.68C91.53 122.59 92.02 111.07 96.26 100.66C101.43 87.9496 111.92 77.9596 123.92 71.6696C135.92 65.3796 149.39 62.5296 162.81 61.2596C161.33 55.7996 159.35 50.4796 156.91 45.3996C156.18 43.8796 155.34 42.2996 153.9 41.4596C152.7 40.7496 151.25 40.6596 149.85 40.6296C136.71 40.3396 123.47 43.8196 112.2 50.7596C103.34 56.2196 95.73 63.8096 90.23 72.7396L90.21 72.7496Z" fill="white"/>
<path d="M128.45 109.83C136.07 103.23 145.79 99.3496 155.58 97.4296C158.6 96.8196 161.63 96.3996 164.68 96.0996C165.4 89.7396 165.34 83.2596 164.45 76.8096C140.5 77.0396 114.47 85.3796 103.87 108.16C98.53 120.26 99.28 134.3 94.46 146.73C91.8 153.84 87.72 159.94 82.5 164.9C88.49 165.29 94.55 165 100.57 163.97C102.42 162.31 104.11 160.47 105.58 158.41C109.37 153.13 111.32 146.85 113.02 140.62C115.95 129.41 119.05 117.63 128.45 109.82V109.83Z" fill="white"/>
<path d="M43.79 155.67C53.48 149.22 61.15 140.3 63.99 128.12C68.05 113.2 66.92 97.2796 71.81 82.4496C79.82 56.2096 102.55 36.0196 128.33 28.4496C132.08 27.3696 138.59 25.8196 142.5 25.2996C118.61 -0.19039 76.13 -8.22039 43.07 9.55961C4.14 30.4796 -11.43 81.2896 9.02 120.75C17.1 136.35 29.42 148.21 43.78 155.67H43.79Z" fill="white"/>
<path d="M134.43 122.28C121.36 131.55 122.97 148.72 111.51 160.6C115.89 159.55 120.24 158.04 124.47 156.03C142.04 147.69 154.18 132.56 159.27 115.26C150.47 115.47 141.74 117.22 134.43 122.27V122.28Z" fill="white"/>
</svg>
